<svg width="27.52" height="12.224" viewBox="0 0 27.52 12.224" xmlns="http://www.w3.org/2000/svg"><g id="svgGroup" stroke-linecap="round" fill-rule="evenodd" font-size="9pt" stroke="#ffffff" stroke-width="0.25mm" fill="#ffffff" style="stroke:#ffffff;stroke-width:0.25mm;fill:#ffffff"><path d="M 18.464 12.032 L 17.024 12.032 L 17.024 5.264 L 15.744 5.264 L 15.744 4.016 L 17.024 4.016 L 17.024 3.04 A 4.079 4.079 0 0 1 17.124 2.109 Q 17.301 1.352 17.792 0.832 A 2.627 2.627 0 0 1 17.808 0.816 A 2.619 2.619 0 0 1 19.473 0.02 A 3.594 3.594 0 0 1 19.856 0 A 4.797 4.797 0 0 1 20.418 0.031 Q 20.737 0.069 21.008 0.152 Q 21.504 0.304 21.952 0.528 L 21.52 1.744 Q 21.184 1.568 20.8 1.424 Q 20.416 1.28 19.952 1.28 A 1.728 1.728 0 0 0 19.467 1.345 A 1.327 1.327 0 0 0 18.872 1.704 A 1.354 1.354 0 0 0 18.56 2.243 Q 18.494 2.452 18.473 2.705 A 2.927 2.927 0 0 0 18.464 2.944 L 18.464 4.016 L 20.928 4.016 L 20.928 5.264 L 18.464 5.264 L 18.464 12.032 Z M 24.032 12.032 L 22.592 12.032 L 22.592 5.264 L 21.312 5.264 L 21.312 4.016 L 22.592 4.016 L 22.592 3.04 A 4.079 4.079 0 0 1 22.692 2.109 Q 22.869 1.352 23.36 0.832 A 2.627 2.627 0 0 1 23.376 0.816 A 2.619 2.619 0 0 1 25.041 0.02 A 3.594 3.594 0 0 1 25.424 0 A 4.797 4.797 0 0 1 25.986 0.031 Q 26.305 0.069 26.576 0.152 Q 27.072 0.304 27.52 0.528 L 27.088 1.744 Q 26.752 1.568 26.368 1.424 Q 25.984 1.28 25.52 1.28 A 1.728 1.728 0 0 0 25.035 1.345 A 1.327 1.327 0 0 0 24.44 1.704 A 1.354 1.354 0 0 0 24.128 2.243 Q 24.062 2.452 24.041 2.705 A 2.927 2.927 0 0 0 24.032 2.944 L 24.032 4.016 L 26.496 4.016 L 26.496 5.264 L 24.032 5.264 L 24.032 12.032 Z M 14.896 8.464 L 9.072 8.464 Q 9.216 9.632 9.888 10.288 A 2.263 2.263 0 0 0 11.108 10.898 A 3.203 3.203 0 0 0 11.664 10.944 Q 12.384 10.944 12.96 10.792 Q 13.536 10.64 14.064 10.4 L 14.4 11.632 Q 13.824 11.888 13.104 12.056 A 6.226 6.226 0 0 1 12.289 12.187 A 8.324 8.324 0 0 1 11.488 12.224 Q 9.696 12.224 8.648 11.08 Q 7.6 9.936 7.6 7.872 A 5.657 5.657 0 0 1 7.733 6.621 A 4.614 4.614 0 0 1 8.072 5.64 A 3.943 3.943 0 0 1 8.875 4.507 A 3.662 3.662 0 0 1 9.392 4.088 A 3.368 3.368 0 0 1 11.033 3.533 A 4.193 4.193 0 0 1 11.36 3.52 A 4.569 4.569 0 0 1 12.235 3.599 Q 12.869 3.723 13.352 4.04 Q 14.144 4.56 14.544 5.44 A 4.51 4.51 0 0 1 14.932 7.018 A 5.35 5.35 0 0 1 14.944 7.376 A 12.033 12.033 0 0 1 14.897 8.448 A 11.226 11.226 0 0 1 14.896 8.464 Z M 0 11.296 L 0.736 10.128 A 2.697 2.697 0 0 0 1.387 10.627 A 3.109 3.109 0 0 0 1.504 10.688 A 2.098 2.098 0 0 0 2.124 10.89 A 1.911 1.911 0 0 0 2.416 10.912 A 1.718 1.718 0 0 0 2.977 10.824 A 1.43 1.43 0 0 0 3.632 10.36 Q 4.08 9.808 4.08 8.496 L 4.08 0.832 L 5.6 0.832 L 5.6 8.336 A 7.575 7.575 0 0 1 5.532 9.392 Q 5.359 10.618 4.747 11.284 A 2.324 2.324 0 0 1 4.736 11.296 A 2.869 2.869 0 0 1 2.849 12.206 A 3.949 3.949 0 0 1 2.464 12.224 A 3.751 3.751 0 0 1 1.172 12.003 A 3.585 3.585 0 0 1 1.08 11.968 Q 0.432 11.712 0 11.296 Z M 9.056 7.296 L 13.616 7.296 A 3.897 3.897 0 0 0 13.551 6.562 Q 13.418 5.866 13.008 5.424 Q 12.4 4.768 11.328 4.768 Q 10.4 4.768 9.792 5.416 A 2.426 2.426 0 0 0 9.322 6.166 Q 9.123 6.651 9.056 7.296 Z" vector-effect="non-scaling-stroke"/></g></svg>